<svg xmlns="http://www.w3.org/2000/svg" width="1024" height="1024" viewBox="0 0 1024 1024">

  <defs>
    <linearGradient id="bg" x1="0" y1="0" x2="1" y2="1">
      <stop offset="0%" stop-color="#071B34"/>
      <stop offset="52%" stop-color="#0078D4"/>
      <stop offset="100%" stop-color="#00A6F0"/>
    </linearGradient>
    <linearGradient id="shield" x1="0" y1="0" x2="1" y2="1">
      <stop offset="0%" stop-color="#FFFFFF" stop-opacity="0.98"/>
      <stop offset="100%" stop-color="#A6D8FF" stop-opacity="0.92"/>
    </linearGradient>
    <filter id="shadow" x="-20%" y="-20%" width="140%" height="140%">
      <feDropShadow dx="0" dy="28" stdDeviation="28" flood-color="#000000" flood-opacity="0.28"/>
    </filter>
  </defs>
  <rect width="1024" height="1024" rx="216" fill="url(#bg)"/>
  <circle cx="820" cy="158" r="74" fill="#FFFFFF" opacity="0.12"/>
  <circle cx="166" cy="846" r="118" fill="#FFFFFF" opacity="0.10"/>

  <g filter="url(#shadow)">
    <path d="M512 146 L742 238 V432 C742 601 645 744 512 828 C379 744 282 601 282 432 V238 Z"
          fill="url(#shield)" stroke="#DDF4FF" stroke-width="18" stroke-linejoin="round"/>
    <path d="M512 200 L688 270 V430 C688 560 617 676 512 751 C407 676 336 560 336 430 V270 Z"
          fill="#071B34" opacity="0.12"/>
  </g>
  <g>
    <circle cx="445" cy="431" r="76" fill="none" stroke="#0078D4" stroke-width="54"/>
    <path d="M499 485 L665 651" stroke="#0078D4" stroke-width="56" stroke-linecap="round"/>
    <path d="M612 598 L666 544" stroke="#0078D4" stroke-width="48" stroke-linecap="round"/>
    <path d="M669 655 L720 604" stroke="#0078D4" stroke-width="48" stroke-linecap="round"/>
  </g>
  <g>
    <path d="M326 623 H398 L437 570 L491 690 L540 623 H694" fill="none" stroke="#38BDF8" stroke-width="34" stroke-linecap="round" stroke-linejoin="round"/>
  </g>
  <g>
    <circle cx="672" cy="316" r="72" fill="#FFB900" stroke="#FFFFFF" stroke-width="22"/>
    <path d="M672 276 V321 L704 342" fill="none" stroke="#071B34" stroke-width="20" stroke-linecap="round" stroke-linejoin="round"/>
  </g>
</svg>