<svg xmlns="http://www.w3.org/2000/svg" width="1024" height="1024" viewBox="0 0 1024 1024">
  <defs>
    <linearGradient id="bg" x1="0" y1="0" x2="1" y2="1">
      <stop offset="0%" stop-color="#071B34"/>
      <stop offset="65%" stop-color="#0078D4"/>
      <stop offset="100%" stop-color="#00A6F0"/>
    </linearGradient>
    <filter id="soft" x="-30%" y="-30%" width="160%" height="160%">
      <feDropShadow dx="0" dy="22" stdDeviation="30" flood-color="#000000" flood-opacity="0.30"/>
    </filter>
  </defs>
  <rect width="1024" height="1024" fill="url(#bg)"/>
  <circle cx="774" cy="194" r="128" fill="#FFFFFF" opacity="0.08"/>
  <circle cx="224" cy="832" r="172" fill="#FFFFFF" opacity="0.08"/>
  <g transform="translate(212 108) scale(.585)" filter="url(#soft)">
    <path d="M512 146 L742 238 V432 C742 601 645 744 512 828 C379 744 282 601 282 432 V238 Z"
          fill="#F4FBFF" stroke="#DDF4FF" stroke-width="18" stroke-linejoin="round"/>
    <path d="M512 200 L688 270 V430 C688 560 617 676 512 751 C407 676 336 560 336 430 V270 Z"
          fill="#071B34" opacity="0.12"/>
    <circle cx="445" cy="431" r="76" fill="none" stroke="#0078D4" stroke-width="54"/>
    <path d="M499 485 L665 651" stroke="#0078D4" stroke-width="56" stroke-linecap="round"/>
    <path d="M612 598 L666 544" stroke="#0078D4" stroke-width="48" stroke-linecap="round"/>
    <path d="M669 655 L720 604" stroke="#0078D4" stroke-width="48" stroke-linecap="round"/>
    <path d="M326 623 H398 L437 570 L491 690 L540 623 H694" fill="none" stroke="#38BDF8" stroke-width="34" stroke-linecap="round" stroke-linejoin="round"/>
    <circle cx="672" cy="316" r="72" fill="#FFB900" stroke="#FFFFFF" stroke-width="22"/>
    <path d="M672 276 V321 L704 342" fill="none" stroke="#071B34" stroke-width="20" stroke-linecap="round" stroke-linejoin="round"/>
  </g>
  <text x="512" y="708" text-anchor="middle" font-family="Segoe UI, Arial, sans-serif" font-size="58" font-weight="700" fill="#FFFFFF">Secret Monitor</text>
  <text x="512" y="770" text-anchor="middle" font-family="Segoe UI, Arial, sans-serif" font-size="32" font-weight="500" fill="#DDF4FF">Azure App Registration Guard</text>
</svg>